<?xml version="1.0" encoding="utf-8"?>
<!-- Generator: Adobe Illustrator 28.0.0, SVG Export Plug-In . SVG Version: 6.00 Build 0)  -->
<svg version="1.1" id="Слой_1" xmlns="http://www.w3.org/2000/svg" xmlns:xlink="http://www.w3.org/1999/xlink" x="0px" y="0px"
	 viewBox="0 0 36 36" style="enable-background:new 0 0 36 36;" xml:space="preserve">
<style type="text/css">
	.st0{fill:#FFFFFF;fill-opacity:0.3;}
	.st1{fill-rule:evenodd;clip-rule:evenodd;fill:#EB5757;}
</style>
<g>
	<path class="st0" d="M10,0h16c5.5,0,10,4.5,10,10v16c0,5.5-4.5,10-10,10H10C4.5,36,0,31.5,0,26V10C0,4.5,4.5,0,10,0z"/>
</g>
<path class="st1" d="M17.8,22.2l-4.3,2.2c-0.3,0.2-0.8,0-1-0.3c-0.1-0.1-0.1-0.2-0.1-0.3v-9.8c0-1.9,1.4-2.6,3.3-2.6h4.6
	c1.9,0,3.3,0.7,3.3,2.5v9.9c0,0.2-0.1,0.3-0.2,0.5c-0.1,0.1-0.3,0.2-0.5,0.2c-0.1,0-0.2,0-0.3-0.1l-4.3-2.2
	C18.1,22.2,17.9,22.2,17.8,22.2z"/>
</svg>
