<svg width="64" height="64" viewBox="0 0 64 64" fill="none" xmlns="http://www.w3.org/2000/svg">
<g filter="url(#filter0_d_1_158)">
<rect x="12" y="6" width="40" height="40" rx="12" fill="url(#paint0_linear_1_158)"/>
</g>
<path fill-rule="evenodd" clip-rule="evenodd" d="M27.8542 14.1633C29.0674 14.1633 30.2052 14.4671 31.1863 14.9984C31.5145 14.9667 31.8472 14.9505 32.1837 14.9505C37.8354 14.9505 42.4169 19.532 42.4169 25.1837C42.4169 25.6885 42.3804 26.1848 42.3098 26.67C42.8776 27.6159 43.2041 28.7232 43.2041 29.9067C43.2041 33.3847 40.3847 36.2041 36.9068 36.2041C35.7232 36.2041 34.6159 35.8776 33.67 35.3098C33.1848 35.3804 32.6885 35.4169 32.1837 35.4169C26.532 35.4169 21.9505 30.8353 21.9505 25.1837C21.9505 24.6539 21.9907 24.1335 22.0683 23.6254C21.4929 22.6956 21.1633 21.6143 21.1633 20.4606C21.1633 16.9827 24.1589 14.1633 27.8542 14.1633ZM35.5651 21.5103C36.1196 20.4607 33.9015 19.6735 32.2379 19.6735C30.5743 19.6735 28.3561 20.7231 28.3561 22.5598C28.3561 24.3966 29.7424 25.0525 31.1288 25.7085C31.4061 25.8397 31.718 25.9545 32.0299 26.0693C32.9657 26.4137 33.9015 26.7581 33.9015 27.5452C33.9015 28.5948 32.7924 28.8572 31.6833 28.8572C31.2864 28.8572 30.8292 28.669 30.3763 28.4826C29.5638 28.1483 28.7656 27.8198 28.3561 28.5948C27.8016 29.6444 29.448 30.6939 31.6833 30.6939C34.1787 30.6939 36.1196 29.6444 36.1196 27.5452C36.1196 25.5778 33.9275 24.7629 32.511 24.2363C32.4162 24.201 32.3249 24.1671 32.2379 24.1342C30.8515 23.6094 30.5743 23.0846 30.5743 22.5598C30.5743 22.035 31.1288 21.5103 32.2379 21.5103C32.6076 21.5103 33.0163 21.6697 33.425 21.829C34.2424 22.1478 35.0598 22.4666 35.5651 21.5103Z" fill="white"/>
<defs>
<filter id="filter0_d_1_158" x="0" y="0" width="64" height="64" filterUnits="userSpaceOnUse" color-interpolation-filters="sRGB">
<feFlood flood-opacity="0" result="BackgroundImageFix"/>
<feColorMatrix in="SourceAlpha" type="matrix" values="0 0 0 0 0 0 0 0 0 0 0 0 0 0 0 0 0 0 127 0" result="hardAlpha"/>
<feOffset dy="6"/>
<feGaussianBlur stdDeviation="6"/>
<feColorMatrix type="matrix" values="0 0 0 0 0.113725 0 0 0 0 0.498039 0 0 0 0 0.847059 0 0 0 0.2 0"/>
<feBlend mode="normal" in2="BackgroundImageFix" result="effect1_dropShadow_1_158"/>
<feBlend mode="normal" in="SourceGraphic" in2="effect1_dropShadow_1_158" result="shape"/>
</filter>
<linearGradient id="paint0_linear_1_158" x1="16.4444" y1="13.7778" x2="46.4444" y2="38.7778" gradientUnits="userSpaceOnUse">
<stop stop-color="#58D3EE"/>
<stop offset="1" stop-color="#0B66D1"/>
</linearGradient>
</defs>
</svg>
