<svg width="24" height="23" viewBox="0 0 24 23" fill="none" xmlns="http://www.w3.org/2000/svg">
<g id="Iconly/Bold/Profile">
<g id="Profile">
<path id="Profile_2" fill-rule="evenodd" clip-rule="evenodd" d="M17.035 7.09201C17.035 9.95027 14.7819 12.2674 12.0025 12.2674C9.22314 12.2674 6.97001 9.95027 6.97001 7.09201C6.97001 4.23375 9.22314 1.91667 12.0025 1.91667C14.7819 1.91667 17.035 4.23375 17.035 7.09201ZM16.322 15.1833C17.9221 15.5073 18.9668 16.0359 19.4145 16.8885C19.7507 17.5539 19.7507 18.3461 19.4145 19.0115C18.9668 19.8641 17.9636 20.4268 16.3054 20.7167C15.5666 20.8657 14.8186 20.9626 14.0669 21.0066C13.3705 21.0833 12.6741 21.0833 11.9694 21.0833H10.7009C10.4356 21.0492 10.1785 21.0322 9.92982 21.0322C9.17807 20.9935 8.42999 20.8995 7.69131 20.7508C6.09119 20.4439 5.04655 19.8982 4.59885 19.0456C4.42602 18.7153 4.3349 18.3464 4.33354 17.9713C4.32994 17.594 4.4183 17.2217 4.59056 16.8885C5.02997 16.0359 6.07461 15.4817 7.69131 15.1833C8.43324 15.0377 9.18388 14.9437 9.93811 14.9019C11.3178 14.7907 12.7038 14.7907 14.0835 14.9019C14.8348 14.9457 15.5826 15.0397 16.322 15.1833Z" fill="#2C3550"/>
</g>
</g>
</svg>
