<svg width="64" height="64" viewBox="0 0 64 64" fill="none" xmlns="http://www.w3.org/2000/svg">
<g filter="url(#filter0_d_1_146)">
<rect x="12" y="6" width="40" height="40" rx="12" fill="url(#paint0_radial_1_146)"/>
<rect x="12" y="6" width="40" height="40" rx="12" fill="url(#paint1_radial_1_146)"/>
<rect x="12" y="6" width="40" height="40" rx="12" fill="url(#paint2_radial_1_146)"/>
<path d="M32 36.8333C29.0843 36.8333 28.6992 36.8206 27.5329 36.7682C26.6344 36.749 25.7454 36.5788 24.9033 36.2646C24.1803 35.9928 23.5254 35.5661 22.9846 35.0145C22.4333 34.4734 22.007 33.8182 21.7354 33.095C21.4212 32.2529 21.251 31.364 21.2318 30.4654C21.1794 29.3008 21.1667 28.9148 21.1667 26C21.1667 23.1046 21.1794 22.7153 21.2318 21.5329C21.25 20.6343 21.42 19.7453 21.7346 18.9033C22.0073 18.1805 22.4342 17.5258 22.9855 16.9846C23.5263 16.4333 24.1812 16.0069 24.9042 15.7354C25.7462 15.421 26.6352 15.2507 27.5338 15.2318C28.6992 15.1794 29.0852 15.1667 32 15.1667C34.9148 15.1667 35.3008 15.1794 36.4645 15.2318C37.3639 15.2509 38.2537 15.4211 39.0967 15.7354C39.8191 16.0072 40.4733 16.4336 41.0137 16.9846C41.565 17.5258 41.9918 18.1805 42.2646 18.9033C42.577 19.7459 42.7472 20.6346 42.7682 21.5329C42.8206 22.6992 42.8333 23.0885 42.8333 26C42.8333 28.9115 42.8206 29.3008 42.769 30.4671C42.7479 31.3652 42.5778 32.2535 42.2654 33.0958C41.9867 33.8153 41.561 34.4688 41.0156 35.0146C40.4701 35.5603 39.8169 35.9863 39.0975 36.2654C38.2549 36.5796 37.3653 36.7498 36.4662 36.769C35.3008 36.8215 34.9148 36.8333 32 36.8333ZM31.0292 17.1133C29.0158 17.1133 28.6341 17.1285 27.6235 17.1742C26.9364 17.1821 26.2558 17.3087 25.6117 17.5483C25.1411 17.7221 24.7154 17.9992 24.3659 18.3591C24.0059 18.7086 23.7289 19.1343 23.5551 19.6049C23.3161 20.2489 23.1898 20.9291 23.1818 21.6159C23.1302 22.7525 23.1192 23.0945 23.1192 25.9924C23.1192 28.8903 23.1302 29.2339 23.1818 30.3697C23.1898 31.0565 23.3161 31.7368 23.5551 32.3807C23.7289 32.851 24.006 33.2764 24.3659 33.6257C24.7154 33.9856 25.1411 34.2627 25.6117 34.4365C26.2561 34.6746 26.9365 34.8009 27.6235 34.8097C28.7737 34.8622 29.1173 34.8732 32.0009 34.8732C34.8844 34.8732 35.2272 34.8622 36.3782 34.8097C37.065 34.8017 37.7452 34.6754 38.3891 34.4365C38.8561 34.2561 39.2802 33.9802 39.6342 33.6263C39.9883 33.2724 40.2644 32.8484 40.4449 32.3815C40.6839 31.7376 40.8101 31.0573 40.8182 30.3706C40.8706 29.2204 40.8816 28.8768 40.8816 25.9949C40.8816 23.1131 40.8706 22.7695 40.8182 21.6193C40.8102 20.9325 40.6839 20.2522 40.4449 19.6083C40.2709 19.1378 39.9939 18.7121 39.6341 18.3625C39.2848 18.0025 38.8591 17.7257 38.3883 17.5525C37.7444 17.3136 37.0641 17.1873 36.3773 17.1793C35.2407 17.1277 34.8988 17.1167 32 17.1167H31.0292V17.1133ZM32 31.5622C30.8997 31.5622 29.8241 31.236 28.9092 30.6246C27.9944 30.0133 27.2813 29.1444 26.8603 28.1279C26.4393 27.1113 26.3292 25.9927 26.5439 24.9135C26.7586 23.8344 27.2885 22.8431 28.0666 22.0652C28.8447 21.2872 29.836 20.7574 30.9152 20.5429C31.9944 20.3283 33.113 20.4386 34.1295 20.8598C35.146 21.281 36.0148 21.9941 36.626 22.9091C37.2371 23.824 37.5633 24.8997 37.5631 26C37.5611 27.4747 36.9743 28.8885 35.9314 29.9312C34.8886 30.9739 33.4747 31.5604 32 31.5622ZM32 22.3886C31.286 22.3889 30.5882 22.601 29.9946 22.9979C29.4011 23.3948 28.9386 23.9587 28.6656 24.6184C28.3925 25.2782 28.3212 26.004 28.4607 26.7043C28.6001 27.4045 28.944 28.0477 29.449 28.5525C29.9539 29.0573 30.5971 29.4011 31.2974 29.5403C31.9977 29.6796 32.7235 29.6081 33.3832 29.3349C34.0429 29.0618 34.6067 28.5991 35.0035 28.0055C35.4002 27.4119 35.6121 26.714 35.6122 26C35.6111 25.0425 35.2301 24.1245 34.5529 23.4476C33.8757 22.7707 32.9575 22.3901 32 22.3895V22.3886ZM37.7831 21.5143C37.5259 21.5142 37.2745 21.4377 37.0608 21.2946C36.847 21.1515 36.6805 20.9482 36.5824 20.7104C36.4842 20.4727 36.4588 20.2112 36.5093 19.9589C36.5599 19.7067 36.6841 19.4752 36.8663 19.2936C37.0484 19.112 37.2804 18.9885 37.5328 18.9388C37.7851 18.8891 38.0466 18.9154 38.284 19.0143C38.5215 19.1133 38.7242 19.2804 38.8666 19.4946C39.009 19.7088 39.0847 19.9605 39.084 20.2177C39.0829 20.562 38.9453 20.8918 38.7015 21.1348C38.4577 21.3779 38.1274 21.5143 37.7831 21.5143Z" fill="white"/>
</g>
<defs>
<filter id="filter0_d_1_146" x="0" y="0" width="64" height="64" filterUnits="userSpaceOnUse" color-interpolation-filters="sRGB">
<feFlood flood-opacity="0" result="BackgroundImageFix"/>
<feColorMatrix in="SourceAlpha" type="matrix" values="0 0 0 0 0 0 0 0 0 0 0 0 0 0 0 0 0 0 127 0" result="hardAlpha"/>
<feOffset dy="6"/>
<feGaussianBlur stdDeviation="6"/>
<feColorMatrix type="matrix" values="0 0 0 0 0.882353 0 0 0 0 0.258824 0 0 0 0 0.364706 0 0 0 0.2 0"/>
<feBlend mode="normal" in2="BackgroundImageFix" result="effect1_dropShadow_1_146"/>
<feBlend mode="normal" in="SourceGraphic" in2="effect1_dropShadow_1_146" result="shape"/>
</filter>
<radialGradient id="paint0_radial_1_146" cx="0" cy="0" r="1" gradientUnits="userSpaceOnUse" gradientTransform="translate(26.2857 36) rotate(-55.3758) scale(36.4566)">
<stop stop-color="#B13589"/>
<stop offset="0.79309" stop-color="#C62F94"/>
<stop offset="1" stop-color="#8A3AC8"/>
</radialGradient>
<radialGradient id="paint1_radial_1_146" cx="0" cy="0" r="1" gradientUnits="userSpaceOnUse" gradientTransform="translate(24.8571 47.4286) rotate(-65.1363) scale(32.2775)">
<stop stop-color="#E0E8B7"/>
<stop offset="0.444662" stop-color="#FB8A2E"/>
<stop offset="0.71474" stop-color="#E2425C"/>
<stop offset="1" stop-color="#E2425C" stop-opacity="0"/>
</radialGradient>
<radialGradient id="paint2_radial_1_146" cx="0" cy="0" r="1" gradientUnits="userSpaceOnUse" gradientTransform="translate(9.85715 7.42857) rotate(-8.1301) scale(55.5584 11.8834)">
<stop offset="0.156701" stop-color="#406ADC"/>
<stop offset="0.467799" stop-color="#6A45BE"/>
<stop offset="1" stop-color="#6A45BE" stop-opacity="0"/>
</radialGradient>
</defs>
</svg>
