<svg width="24" height="24" viewBox="0 0 24 24" fill="none" xmlns="http://www.w3.org/2000/svg">
<g id="log-in-outline">
<path id="Vector" d="M9.125 7.93091V6.13403C9.125 5.65747 9.31431 5.20043 9.65129 4.86345C9.98827 4.52647 10.4453 4.33716 10.9219 4.33716H18.1094C18.5859 4.33716 19.043 4.52647 19.38 4.86345C19.7169 5.20043 19.9062 5.65747 19.9062 6.13403V16.9153C19.9062 17.3918 19.7169 17.8489 19.38 18.1859C19.043 18.5228 18.5859 18.7122 18.1094 18.7122H11.2812C10.2889 18.7122 9.125 17.9076 9.125 16.9153V15.1184" stroke="#767676" stroke-width="1.5" stroke-linecap="round" stroke-linejoin="round"/>
<path id="Vector_2" d="M13.4375 15.1184L17.0312 11.5247L13.4375 7.93091M4.09375 11.5247H16.3125" stroke="#767676" stroke-width="1.5" stroke-linecap="round" stroke-linejoin="round"/>
</g>
</svg>
