<svg width="24" height="23" viewBox="0 0 24 23" fill="none" xmlns="http://www.w3.org/2000/svg">
<g id="Iconly/Bold/Location">
<g id="Location">
<path id="Location_2" fill-rule="evenodd" clip-rule="evenodd" d="M12.0288 1.91669C14.1946 1.92627 16.2646 2.78877 17.7788 4.30294C19.3025 5.82669 20.1554 7.88711 20.1459 10.0242V10.0721C20.0884 12.9759 18.4592 15.6496 16.4275 17.7388C15.2775 18.9175 14.0029 19.9621 12.6134 20.8438C12.2396 21.16 11.6934 21.16 11.3196 20.8438C9.25919 19.5021 7.43835 17.8154 5.96252 15.8509C4.66877 14.145 3.93085 12.0942 3.85419 9.95711C3.87335 5.50086 7.53419 1.90711 12.0288 1.91669ZM12.0288 12.7075C12.7092 12.7075 13.3609 12.4488 13.84 11.9792C14.3384 11.4904 14.6172 10.8397 14.6172 10.1584C14.6172 8.74002 13.4567 7.59961 12.0288 7.59961C10.6009 7.59961 9.45086 8.74002 9.45086 10.1584C9.45086 11.5585 10.5817 12.6884 12 12.7075H12.0288Z" fill="#200E32"/>
</g>
</g>
</svg>
