<svg width="24" height="23" viewBox="0 0 24 23" fill="none" xmlns="http://www.w3.org/2000/svg">
<g id="compass">
<path id="Vector" opacity="0.3" d="M12 12.5781C12.5954 12.5781 13.0781 12.0954 13.0781 11.5C13.0781 10.9046 12.5954 10.4219 12 10.4219C11.4046 10.4219 10.9219 10.9046 10.9219 11.5C10.9219 12.0954 11.4046 12.5781 12 12.5781Z" fill="#D2CFD6"/>
<path id="Vector_2" d="M12 2.15625C6.84791 2.15625 2.65625 6.34791 2.65625 11.5C2.65625 16.6521 6.84791 20.8438 12 20.8438C17.1521 20.8438 21.3438 16.6521 21.3438 11.5C21.3438 6.34791 17.1521 2.15625 12 2.15625ZM16.7199 7.24725L14.614 12.5121C14.4694 12.8737 14.2528 13.2021 13.9775 13.4775C13.7021 13.7528 13.3737 13.9694 13.0121 14.114L7.74725 16.2199C7.68194 16.2461 7.61039 16.2525 7.54148 16.2383C7.47257 16.2242 7.40932 16.1902 7.35958 16.1404C7.30984 16.0907 7.27579 16.0274 7.26165 15.9585C7.24752 15.8896 7.25392 15.8181 7.28006 15.7528L9.386 10.4879C9.5306 10.1263 9.74715 9.79788 10.0225 9.52252C10.2979 9.24715 10.6263 9.0306 10.9879 8.886L16.2528 6.78006C16.3181 6.75392 16.3896 6.74752 16.4585 6.76165C16.5274 6.77579 16.5907 6.80984 16.6404 6.85958C16.6902 6.90932 16.7242 6.97257 16.7383 7.04148C16.7525 7.11039 16.7461 7.18194 16.7199 7.24725Z" fill="#D2CFD6"/>
</g>
</svg>
