<svg width="23" height="23" viewBox="0 0 23 23" fill="none" xmlns="http://www.w3.org/2000/svg">
<g id="edit" clip-path="url(#clip0_1_258)">
<path id="Vector" d="M10.5834 3.69135H4.16671C3.68048 3.69135 3.21416 3.8845 2.87034 4.22832C2.52653 4.57213 2.33337 5.03845 2.33337 5.52468V18.358C2.33337 18.8442 2.52653 19.3106 2.87034 19.6544C3.21416 19.9982 3.68048 20.1913 4.16671 20.1913H17C17.4863 20.1913 17.9526 19.9982 18.2964 19.6544C18.6402 19.3106 18.8334 18.8442 18.8334 18.358V11.9413" stroke="#5669FF" stroke-width="2" stroke-linecap="round" stroke-linejoin="round"/>
<path id="Vector_2" d="M17.4584 2.31631C17.823 1.95164 18.3176 1.74677 18.8334 1.74677C19.3491 1.74677 19.8437 1.95164 20.2084 2.31631C20.573 2.68098 20.7779 3.17558 20.7779 3.69131C20.7779 4.20703 20.573 4.70164 20.2084 5.06631L11.5 13.7746L7.83337 14.6913L8.75004 11.0246L17.4584 2.31631Z" stroke="#5669FF" stroke-width="2" stroke-linecap="round" stroke-linejoin="round"/>
</g>
<defs>
<clipPath id="clip0_1_258">
<rect width="22" height="22" fill="white" transform="translate(0.5 0.0246582)"/>
</clipPath>
</defs>
</svg>
