<svg width="20" height="21" viewBox="0 0 20 21" fill="none" xmlns="http://www.w3.org/2000/svg">
<g id="Group 18461">
<path id="Calendar" fill-rule="evenodd" clip-rule="evenodd" d="M14.3869 1.65334L14.388 2.37173C17.2642 2.57863 19.1642 4.37748 19.1673 7.13609L19.1786 15.2108C19.1827 18.2185 17.124 20.069 13.8241 20.0738L5.76338 20.0834C2.48406 20.0872 0.399565 18.1926 0.395441 15.1763L0.384101 7.19644C0.379978 4.41962 2.21293 2.62556 5.08917 2.38322L5.08814 1.66483C5.08711 1.24338 5.42731 0.926329 5.88091 0.926329C6.33451 0.925371 6.67471 1.24146 6.67574 1.66292L6.67677 2.33342L12.8004 2.32575L12.7993 1.65526C12.7983 1.2338 13.1385 0.917708 13.5921 0.91675C14.0354 0.915792 14.3859 1.23188 14.3869 1.65334ZM1.97275 7.49236L17.5807 7.4732V7.13795C17.5364 5.07857 16.4106 3.99811 14.39 3.83719L14.3911 4.57474C14.3911 4.98661 14.0416 5.31324 13.5983 5.31324C13.1447 5.3142 12.8035 4.98853 12.8035 4.57665L12.8024 3.80079L6.67885 3.80845L6.67988 4.58336C6.67988 4.99619 6.34071 5.32186 5.88711 5.32186C5.43351 5.32282 5.09228 4.99811 5.09228 4.58527L5.09125 3.84772C3.08098 4.03259 1.96862 5.11688 1.97172 7.19446L1.97275 7.49236ZM13.1644 11.8458V11.8563C13.1747 12.2969 13.5664 12.6312 14.0417 12.6216C14.5056 12.6111 14.8757 12.2462 14.8654 11.8055C14.8437 11.3841 14.4715 11.0402 14.0087 11.0412C13.5345 11.0508 13.1633 11.4052 13.1644 11.8458ZM14.0158 16.1465C13.5416 16.137 13.1591 15.7739 13.1581 15.3333C13.1477 14.8927 13.5282 14.5278 14.0024 14.5172H14.0127C14.4972 14.5172 14.89 14.8803 14.89 15.3305C14.891 15.7806 14.4993 16.1456 14.0158 16.1465ZM8.91693 11.8612C8.93755 12.3018 9.33032 12.6457 9.80454 12.6265C10.2684 12.6064 10.6385 12.2424 10.6179 11.8018C10.6066 11.3708 10.2252 11.0355 9.76124 11.0365C9.28702 11.0557 8.9159 11.4206 8.91693 11.8612ZM9.80874 16.1035C9.33453 16.1227 8.94278 15.7788 8.92113 15.3382C8.92113 14.8976 9.29123 14.5336 9.76545 14.5135C10.2294 14.5125 10.6118 14.8478 10.6221 15.2779C10.6438 15.7194 10.2727 16.0834 9.80874 16.1035ZM4.66963 11.8947C4.69025 12.3353 5.08302 12.6801 5.55724 12.66C6.02115 12.6408 6.39124 12.2759 6.3696 11.8353C6.35929 11.4042 5.97785 11.069 5.51291 11.07C5.03869 11.0891 4.6686 11.4541 4.66963 11.8947ZM5.56132 16.1082C5.0871 16.1283 4.69536 15.7835 4.67371 15.3429C4.67268 14.9023 5.0438 14.5373 5.51802 14.5182C5.98193 14.5172 6.3644 14.8525 6.37471 15.2835C6.39635 15.7241 6.02626 16.089 5.56132 16.1082Z" fill="#5669FF"/>
</g>
</svg>
