<svg width="64" height="64" viewBox="0 0 64 64" fill="none" xmlns="http://www.w3.org/2000/svg">
<g filter="url(#filter0_d_1_140)">
<rect x="12" y="6" width="40" height="40" rx="12" fill="url(#paint0_linear_1_140)"/>
</g>
<path fill-rule="evenodd" clip-rule="evenodd" d="M24.8808 38.3033V34.0342C23.5338 33.0377 22.4369 31.7418 21.6766 30.2487C20.9163 28.7557 20.5135 27.1063 20.5 25.4308C20.5 19.3017 25.825 14.3333 32.3942 14.3333C38.9633 14.3333 44.2875 19.3025 44.2875 25.4308C44.2875 31.5592 38.9625 36.5283 32.3933 36.5283C31.2024 36.5295 30.0171 36.3631 28.8725 36.0342L24.8808 38.3033ZM24.7092 29.1824L31.1259 22.3907L34.2017 25.5374L39.975 22.3907L33.5967 29.1816L30.5467 25.9791L24.7092 29.1824Z" fill="white"/>
<defs>
<filter id="filter0_d_1_140" x="0" y="0" width="64" height="64" filterUnits="userSpaceOnUse" color-interpolation-filters="sRGB">
<feFlood flood-opacity="0" result="BackgroundImageFix"/>
<feColorMatrix in="SourceAlpha" type="matrix" values="0 0 0 0 0 0 0 0 0 0 0 0 0 0 0 0 0 0 127 0" result="hardAlpha"/>
<feOffset dy="6"/>
<feGaussianBlur stdDeviation="6"/>
<feColorMatrix type="matrix" values="0 0 0 0 0.482353 0 0 0 0 0.282353 0 0 0 0 1 0 0 0 0.2 0"/>
<feBlend mode="normal" in2="BackgroundImageFix" result="effect1_dropShadow_1_140"/>
<feBlend mode="normal" in="SourceGraphic" in2="effect1_dropShadow_1_140" result="shape"/>
</filter>
<linearGradient id="paint0_linear_1_140" x1="44.8757" y1="8.20118" x2="22.6262" y2="45.6354" gradientUnits="userSpaceOnUse">
<stop stop-color="#FD607A"/>
<stop offset="0.463542" stop-color="#913BFF"/>
<stop offset="1" stop-color="#1A7BFF"/>
</linearGradient>
</defs>
</svg>
